<svg width="319" height="29" viewBox="0 0 319 29" fill="none" xmlns="http://www.w3.org/2000/svg">
<path d="M0.820312 22V19.4365L3.09082 18.9971V3.68945L0.820312 3.25V0.671875H17.373V6.42871H14.0918L13.9014 3.96777H7.36816V9.3291H14.5898V12.625H7.36816V18.7188H14.2529L14.4434 16.1699H17.6953V22H0.820312ZM20.4932 22V19.4365L22.7783 18.9971V9.16797L20.4932 8.72852V6.15039H28.9893V8.72852L27.041 9.16797V12.1855H28.5059L30.8789 8.66992C31.4746 7.75195 32.0947 7.06348 32.7393 6.60449C33.3838 6.13574 34.165 5.90137 35.083 5.90137C35.6299 5.90137 36.1035 5.96973 36.5039 6.10645C36.9043 6.24316 37.2949 6.42871 37.6758 6.66309L36.958 9.62207C36.6846 9.55371 36.4941 9.50977 36.3867 9.49023C36.2891 9.46094 36.167 9.44629 36.0205 9.44629C35.6885 9.44629 35.3662 9.55859 35.0537 9.7832C34.7412 10.0078 34.4678 10.291 34.2334 10.6328L32.1826 13.6211L35.8594 19.085L38.0127 19.4365V22H32.1387L28.6816 16.0674H27.041V18.9971L28.9893 19.4365V22H20.4932ZM44.8682 22.3076C43.2959 22.3076 42.0459 21.8877 41.1182 21.0479C40.1904 20.1982 39.7266 19.0459 39.7266 17.5908C39.7266 16.1064 40.3271 14.8955 41.5283 13.958C42.7393 13.0205 44.5166 12.5518 46.8604 12.5518H48.9551V11.3799C48.9551 10.6182 48.7305 10.0029 48.2812 9.53418C47.8418 9.05566 47.1777 8.81641 46.2891 8.81641C45.8301 8.81641 45.415 8.875 45.0439 8.99219C44.6826 9.09961 44.3555 9.25586 44.0625 9.46094L43.7256 11.5557H40.6494L40.5908 7.43945C41.4209 6.9707 42.3193 6.58984 43.2861 6.29688C44.2529 6.00391 45.332 5.85742 46.5234 5.85742C48.5938 5.85742 50.2295 6.34082 51.4307 7.30762C52.6318 8.27441 53.2324 9.64648 53.2324 11.4238V17.957C53.2324 18.1719 53.2324 18.3818 53.2324 18.5869C53.2422 18.792 53.2617 18.9971 53.291 19.2021L54.9463 19.4365V22H49.6436C49.5361 21.7266 49.4287 21.4336 49.3213 21.1211C49.2139 20.8086 49.1357 20.4961 49.0869 20.1836C48.5791 20.8281 47.9785 21.3457 47.2852 21.7363C46.6016 22.1172 45.7959 22.3076 44.8682 22.3076ZM46.0107 19.1436C46.6064 19.1436 47.168 19.0117 47.6953 18.748C48.2324 18.4746 48.6523 18.1182 48.9551 17.6787V15.1738H46.8457C45.9082 15.1738 45.1953 15.3887 44.707 15.8184C44.2285 16.248 43.9893 16.7656 43.9893 17.3711C43.9893 17.9375 44.165 18.377 44.5166 18.6895C44.8779 18.9922 45.376 19.1436 46.0107 19.1436ZM59.9414 22V19.4365L62.2119 18.9971V9.41699H59.5605L59.3994 11.5557H56.1182V6.15039H72.6709V11.5557H69.3896L69.2139 9.41699H66.5039V18.9971L68.7744 19.4365V22H59.9414ZM81.1084 22.3076C79.585 22.3076 78.2568 21.9756 77.124 21.3115C76.001 20.6377 75.127 19.7148 74.502 18.543C73.8867 17.3711 73.5791 16.0332 73.5791 14.5293V13.9434C73.5791 12.3711 73.8721 10.9795 74.458 9.76855C75.0439 8.54785 75.8691 7.59082 76.9336 6.89746C78.0078 6.19434 79.2725 5.84766 80.7275 5.85742C82.8662 5.85742 84.502 6.4873 85.6348 7.74707C86.7676 8.99707 87.334 10.7549 87.334 13.0205V15.3496H78.0176L77.9883 15.4375C78.0664 16.4824 78.4131 17.3418 79.0283 18.0156C79.6436 18.6895 80.5176 19.0264 81.6504 19.0264C82.4316 19.0264 83.1592 18.9287 83.833 18.7334C84.5166 18.5283 85.1807 18.2305 85.8252 17.8398L86.9824 20.4766C86.3281 21.0039 85.5029 21.4434 84.5068 21.7949C83.5205 22.1367 82.3877 22.3076 81.1084 22.3076ZM78.0469 12.5225H83.335V12.1416C83.335 11.1846 83.1348 10.4277 82.7344 9.87109C82.3438 9.30469 81.6992 9.02148 80.8008 9.02148C79.9414 9.02148 79.2871 9.34863 78.8379 10.0029C78.3887 10.6475 78.1104 11.4629 78.0029 12.4492L78.0469 12.5225ZM89.209 28.0938V25.5156L91.2744 25.0762V9.16797L88.9893 8.72852V6.15039H95.2002L95.4053 7.99609C95.874 7.3125 96.4404 6.78516 97.1045 6.41406C97.7686 6.04297 98.5596 5.85742 99.4775 5.85742C100.757 5.85742 101.851 6.20898 102.759 6.91211C103.667 7.60547 104.36 8.57715 104.839 9.82715C105.327 11.0771 105.571 12.5371 105.571 14.207V14.5146C105.571 16.0771 105.327 17.4443 104.839 18.6162C104.351 19.7783 103.647 20.6865 102.729 21.3408C101.821 21.9854 100.728 22.3076 99.4482 22.3076C97.7783 22.3076 96.4746 21.7021 95.5371 20.4912V25.0762L97.6025 25.5156V28.0938H89.209ZM98.1738 19.0264C99.2676 19.0264 100.059 18.6211 100.547 17.8105C101.045 17 101.294 15.9014 101.294 14.5146V14.207C101.294 12.7129 101.04 11.502 100.532 10.5742C100.024 9.64648 99.2285 9.18262 98.1445 9.18262C96.9531 9.18262 96.084 9.69043 95.5371 10.7061V17.6494C96.0742 18.5674 96.9531 19.0264 98.1738 19.0264ZM107.505 22V19.4365L109.79 18.9971V9.16797L107.505 8.72852V6.15039H116.118V8.72852L114.067 9.16797V15.7744L114.155 15.7891L119.312 6.15039H125.859V8.72852L123.589 9.16797V18.9971L125.859 19.4365V22H117.261V19.4365L119.312 18.9971V12.3613L119.224 12.3467L114.067 22H107.505ZM128.276 22V19.4365L130.562 18.9971V9.16797L128.276 8.72852V6.15039H136.67V8.72852L134.824 9.16797V12.5664H140.039V9.16797L138.208 8.72852V6.15039H146.602V8.72852L144.316 9.16797V18.9971L146.602 19.4365V22H138.208V19.4365L140.039 18.9971V15.8477H134.824V18.9971L136.67 19.4365V22H128.276ZM153.999 22.3076C152.427 22.3076 151.177 21.8877 150.249 21.0479C149.321 20.1982 148.857 19.0459 148.857 17.5908C148.857 16.1064 149.458 14.8955 150.659 13.958C151.87 13.0205 153.647 12.5518 155.991 12.5518H158.086V11.3799C158.086 10.6182 157.861 10.0029 157.412 9.53418C156.973 9.05566 156.309 8.81641 155.42 8.81641C154.961 8.81641 154.546 8.875 154.175 8.99219C153.813 9.09961 153.486 9.25586 153.193 9.46094L152.856 11.5557H149.78L149.722 7.43945C150.552 6.9707 151.45 6.58984 152.417 6.29688C153.384 6.00391 154.463 5.85742 155.654 5.85742C157.725 5.85742 159.36 6.34082 160.562 7.30762C161.763 8.27441 162.363 9.64648 162.363 11.4238V17.957C162.363 18.1719 162.363 18.3818 162.363 18.5869C162.373 18.792 162.393 18.9971 162.422 19.2021L164.077 19.4365V22H158.774C158.667 21.7266 158.56 21.4336 158.452 21.1211C158.345 20.8086 158.267 20.4961 158.218 20.1836C157.71 20.8281 157.109 21.3457 156.416 21.7363C155.732 22.1172 154.927 22.3076 153.999 22.3076ZM155.142 19.1436C155.737 19.1436 156.299 19.0117 156.826 18.748C157.363 18.4746 157.783 18.1182 158.086 17.6787V15.1738H155.977C155.039 15.1738 154.326 15.3887 153.838 15.8184C153.359 16.248 153.12 16.7656 153.12 17.3711C153.12 17.9375 153.296 18.377 153.647 18.6895C154.009 18.9922 154.507 19.1436 155.142 19.1436ZM172.983 22V19.4365L175.254 18.9971V3.68945L172.983 3.25V0.671875H194.78V3.25L192.51 3.68945V18.9971L194.78 19.4365V22H185.962V19.4365L188.232 18.9971V3.96777H179.531V18.9971L181.816 19.4365V22H172.983ZM201.724 22.3076C200.151 22.3076 198.901 21.8877 197.974 21.0479C197.046 20.1982 196.582 19.0459 196.582 17.5908C196.582 16.1064 197.183 14.8955 198.384 13.958C199.595 13.0205 201.372 12.5518 203.716 12.5518H205.811V11.3799C205.811 10.6182 205.586 10.0029 205.137 9.53418C204.697 9.05566 204.033 8.81641 203.145 8.81641C202.686 8.81641 202.271 8.875 201.899 8.99219C201.538 9.09961 201.211 9.25586 200.918 9.46094L200.581 11.5557H197.505L197.446 7.43945C198.276 6.9707 199.175 6.58984 200.142 6.29688C201.108 6.00391 202.188 5.85742 203.379 5.85742C205.449 5.85742 207.085 6.34082 208.286 7.30762C209.487 8.27441 210.088 9.64648 210.088 11.4238V17.957C210.088 18.1719 210.088 18.3818 210.088 18.5869C210.098 18.792 210.117 18.9971 210.146 19.2021L211.802 19.4365V22H206.499C206.392 21.7266 206.284 21.4336 206.177 21.1211C206.069 20.8086 205.991 20.4961 205.942 20.1836C205.435 20.8281 204.834 21.3457 204.141 21.7363C203.457 22.1172 202.651 22.3076 201.724 22.3076ZM202.866 19.1436C203.462 19.1436 204.023 19.0117 204.551 18.748C205.088 18.4746 205.508 18.1182 205.811 17.6787V15.1738H203.701C202.764 15.1738 202.051 15.3887 201.562 15.8184C201.084 16.248 200.845 16.7656 200.845 17.3711C200.845 17.9375 201.021 18.377 201.372 18.6895C201.733 18.9922 202.231 19.1436 202.866 19.1436ZM213.53 22L213.472 18.6309L213.94 18.6162C214.595 18.6162 215.088 18.4453 215.42 18.1035C215.752 17.7617 215.977 17.1807 216.094 16.3604C216.221 15.5303 216.284 14.3779 216.284 12.9033V9.16797L213.999 8.72852V6.15039H230.918V8.72852L228.633 9.16797V18.9971L230.918 19.4365V22H222.085V19.4365L224.37 18.9971V9.46094H220.562V12.9033C220.562 16.0283 220.078 18.3281 219.111 19.8027C218.154 21.2676 216.519 22 214.204 22H213.53ZM240.454 22.3076C238.931 22.3076 237.603 21.9756 236.47 21.3115C235.347 20.6377 234.473 19.7148 233.848 18.543C233.232 17.3711 232.925 16.0332 232.925 14.5293V13.9434C232.925 12.3711 233.218 10.9795 233.804 9.76855C234.39 8.54785 235.215 7.59082 236.279 6.89746C237.354 6.19434 238.618 5.84766 240.073 5.85742C242.212 5.85742 243.848 6.4873 244.98 7.74707C246.113 8.99707 246.68 10.7549 246.68 13.0205V15.3496H237.363L237.334 15.4375C237.412 16.4824 237.759 17.3418 238.374 18.0156C238.989 18.6895 239.863 19.0264 240.996 19.0264C241.777 19.0264 242.505 18.9287 243.179 18.7334C243.862 18.5283 244.526 18.2305 245.171 17.8398L246.328 20.4766C245.674 21.0039 244.849 21.4434 243.853 21.7949C242.866 22.1367 241.733 22.3076 240.454 22.3076ZM237.393 12.5225H242.681V12.1416C242.681 11.1846 242.48 10.4277 242.08 9.87109C241.689 9.30469 241.045 9.02148 240.146 9.02148C239.287 9.02148 238.633 9.34863 238.184 10.0029C237.734 10.6475 237.456 11.4629 237.349 12.4492L237.393 12.5225ZM248.174 22V19.4365L250.21 19.1729L254.751 14.0605L250.459 8.97754L248.54 8.72852V6.15039H256.392V8.61133L255.161 8.80176L257.461 11.8193L259.761 8.80176L258.398 8.61133V6.15039H265.972V8.72852L264.199 8.97754L260.142 13.8848L264.668 19.1729L266.616 19.4365V22H258.486V19.5537L259.863 19.3633L257.417 16.3311L255.029 19.3779L256.377 19.5537V22H248.174ZM275.229 22.3076C273.657 22.3076 272.31 21.9658 271.187 21.2822C270.073 20.5986 269.219 19.6514 268.623 18.4404C268.027 17.2197 267.729 15.8184 267.729 14.2363V13.9287C267.729 12.3564 268.027 10.9648 268.623 9.75391C269.219 8.5332 270.073 7.58105 271.187 6.89746C272.31 6.2041 273.647 5.85742 275.2 5.85742C276.763 5.85742 278.101 6.19922 279.214 6.88281C280.337 7.56641 281.196 8.51855 281.792 9.73926C282.388 10.9502 282.686 12.3467 282.686 13.9287V14.2363C282.686 15.8184 282.388 17.2197 281.792 18.4404C281.196 19.6514 280.342 20.5986 279.229 21.2822C278.115 21.9658 276.782 22.3076 275.229 22.3076ZM275.229 19.0264C276.333 19.0264 277.139 18.5869 277.646 17.708C278.164 16.8291 278.423 15.6719 278.423 14.2363V13.9287C278.423 12.5225 278.164 11.375 277.646 10.4863C277.129 9.59766 276.313 9.15332 275.2 9.15332C274.087 9.15332 273.276 9.59766 272.769 10.4863C272.261 11.375 272.007 12.5225 272.007 13.9287V14.2363C272.007 15.6816 272.261 16.8438 272.769 17.7227C273.276 18.5918 274.097 19.0264 275.229 19.0264ZM284.897 22V19.4365L287.183 18.9971V9.16797L284.897 8.72852V6.15039H293.804C295.913 6.15039 297.554 6.52148 298.726 7.26367C299.907 7.99609 300.498 9.07031 300.498 10.4863C300.498 12.127 299.551 13.2549 297.656 13.8701C298.916 14.1143 299.839 14.5635 300.425 15.2178C301.021 15.8721 301.318 16.6533 301.318 17.5615C301.318 19.0068 300.757 20.1104 299.634 20.8721C298.521 21.624 296.919 22 294.829 22H284.897ZM291.445 12.6104H293.921C295.454 12.5908 296.221 12.0586 296.221 11.0137C296.221 9.94922 295.425 9.41699 293.833 9.41699H291.445V12.6104ZM291.445 18.748H294.814C296.299 18.748 297.041 18.1914 297.041 17.0781C297.041 16.541 296.865 16.126 296.514 15.833C296.172 15.54 295.61 15.3936 294.829 15.3936H291.445V18.748ZM308.569 22.3076C306.997 22.3076 305.747 21.8877 304.819 21.0479C303.892 20.1982 303.428 19.0459 303.428 17.5908C303.428 16.1064 304.028 14.8955 305.229 13.958C306.44 13.0205 308.218 12.5518 310.562 12.5518H312.656V11.3799C312.656 10.6182 312.432 10.0029 311.982 9.53418C311.543 9.05566 310.879 8.81641 309.99 8.81641C309.531 8.81641 309.116 8.875 308.745 8.99219C308.384 9.09961 308.057 9.25586 307.764 9.46094L307.427 11.5557H304.351L304.292 7.43945C305.122 6.9707 306.021 6.58984 306.987 6.29688C307.954 6.00391 309.033 5.85742 310.225 5.85742C312.295 5.85742 313.931 6.34082 315.132 7.30762C316.333 8.27441 316.934 9.64648 316.934 11.4238V17.957C316.934 18.1719 316.934 18.3818 316.934 18.5869C316.943 18.792 316.963 18.9971 316.992 19.2021L318.647 19.4365V22H313.345C313.237 21.7266 313.13 21.4336 313.022 21.1211C312.915 20.8086 312.837 20.4961 312.788 20.1836C312.28 20.8281 311.68 21.3457 310.986 21.7363C310.303 22.1172 309.497 22.3076 308.569 22.3076ZM309.712 19.1436C310.308 19.1436 310.869 19.0117 311.396 18.748C311.934 18.4746 312.354 18.1182 312.656 17.6787V15.1738H310.547C309.609 15.1738 308.896 15.3887 308.408 15.8184C307.93 16.248 307.69 16.7656 307.69 17.3711C307.69 17.9375 307.866 18.377 308.218 18.6895C308.579 18.9922 309.077 19.1436 309.712 19.1436Z" fill="black"/>
</svg>
